<svg width="27" height="27" viewBox="0 0 27 27" fill="none" xmlns="http://www.w3.org/2000/svg">
<rect x="5" y="5" width="16" height="16" fill="#F2F2F2"/>
<g clip-path="url(#clip0_33_840)">
<path d="M26.5 13.5C26.5 20.6805 20.6805 26.5 13.5 26.5C6.3195 26.5 0.5 20.6805 0.5 13.5C0.5 6.3195 6.3195 0.5 13.5 0.5C20.6805 0.5 26.5 6.3195 26.5 13.5ZM20.3557 11.7068L14.4495 5.80055C13.9272 5.27833 13.0728 5.27833 12.5505 5.80055L6.646 11.7051C6.25788 12.0865 6.14217 12.6673 6.35174 13.1702C6.56052 13.6713 7.04734 14 7.59375 14H10.4688V18.5625C10.4688 19.772 11.4467 20.75 12.6562 20.75H14.3438C15.5533 20.75 16.5312 19.772 16.5312 18.5625V14H19.4062C19.9517 14 20.4464 13.6665 20.6499 13.1663C20.8508 12.6723 20.743 12.0941 20.3557 11.7068Z" fill="#F8EFE6" stroke="#333333"/>
</g>
<defs>
<clipPath id="clip0_33_840">
<rect width="27" height="27" fill="white"/>
</clipPath>
</defs>
</svg>
