<svg class="basket-icon" width="596" height="531.98" version="1.1" viewBox="0 0 596 531.98" xmlns="http://www.w3.org/2000/svg">
    <path d="m263.3 45.08c6.1-11.8 1.5-26.3-10.2-32.4-11.7-6.1-26.3-1.5-32.4 10.2l-93.1 179.1h-85.6c-17.7 0-32 14.3-32 32s14.3 32 32 32l51.9 207.5c7.1 28.5 32.7 48.5 62.1 48.5h284c29.4 0 55-20 62.1-48.5l51.9-207.5c17.7 0 32-14.3 32-32s-14.3-32-32-32h-85.6l-93.1-179.1c-6.1-11.7-20.6-16.3-32.4-10.2-11.8 6.1-16.3 20.6-10.2 32.4l81.6 156.9h-232.6zm-61.3 268.9v96c0 8.8-7.2 16-16 16s-16-7.2-16-16v-96c0-8.8 7.2-16 16-16s16 7.2 16 16zm96-16c8.8 0 16 7.2 16 16v96c0 8.8-7.2 16-16 16s-16-7.2-16-16v-96c0-8.8 7.2-16 16-16zm128 16v96c0 8.8-7.2 16-16 16s-16-7.2-16-16v-96c0-8.8 7.2-16 16-16s16 7.2 16 16z" />
</svg>