<?xml version="1.0" encoding="utf-8"?>
<svg xmlns="http://www.w3.org/2000/svg" xmlns:xlink="http://www.w3.org/1999/xlink">
    <symbol viewBox="0 0 27 27" id="arrow-up" xmlns="http://www.w3.org/2000/svg">
        <path d="M5 5h16v16H5z" />
        <g clip-path="url(#aclip0_33_840)">
            <path d="M26.5 13.5c0 7.18-5.82 13-13 13s-13-5.82-13-13 5.82-13 13-13 13 5.82 13 13zm-6.144-1.793L14.449 5.8a1.347 1.347 0 00-1.899 0l-5.904 5.904A1.344 1.344 0 007.594 14h2.875v4.563c0 1.209.978 2.187 2.187 2.187h1.688c1.21 0 2.187-.978 2.187-2.188V14h2.875c.546 0 1.04-.334 1.244-.834.2-.494.093-1.072-.294-1.46z" stroke="#333" />
        </g>
        <defs>
            <clipPath id="aclip0_33_840">
                <path d="M0 0h27v27H0z" />
            </clipPath>
        </defs>
    </symbol>
    <symbol class="bbasket-icon" viewBox="0 0 596 531.98" id="basket" xmlns="http://www.w3.org/2000/svg">
        <path d="M263.3 45.08c6.1-11.8 1.5-26.3-10.2-32.4-11.7-6.1-26.3-1.5-32.4 10.2l-93.1 179.1H42c-17.7 0-32 14.3-32 32s14.3 32 32 32l51.9 207.5c7.1 28.5 32.7 48.5 62.1 48.5h284c29.4 0 55-20 62.1-48.5l51.9-207.5c17.7 0 32-14.3 32-32s-14.3-32-32-32h-85.6l-93.1-179.1c-6.1-11.7-20.6-16.3-32.4-10.2-11.8 6.1-16.3 20.6-10.2 32.4l81.6 156.9H181.7zM202 313.98v96c0 8.8-7.2 16-16 16s-16-7.2-16-16v-96c0-8.8 7.2-16 16-16s16 7.2 16 16zm96-16c8.8 0 16 7.2 16 16v96c0 8.8-7.2 16-16 16s-16-7.2-16-16v-96c0-8.8 7.2-16 16-16zm128 16v96c0 8.8-7.2 16-16 16s-16-7.2-16-16v-96c0-8.8 7.2-16 16-16s16 7.2 16 16z" />
    </symbol>
    <symbol viewBox="0 0 18 18" id="cross" xmlns="http://www.w3.org/2000/svg">
        <path d="M17.167 2.478L15.522.833 9 7.355 2.478.833.833 2.478 7.355 9 .833 15.522l1.645 1.645L9 10.645l6.522 6.522 1.645-1.645L10.645 9l6.522-6.522z" />
    </symbol>
    <symbol viewBox="0 0 236.44 175.7" id="rings" xmlns="http://www.w3.org/2000/svg">
        <path d="M174.586 22.79l8.081-6.536a4.416 4.416 0 00.751-6.05l-6.183-8.391a4.416 4.416 0 00-3.577-1.81h-28.882a4.416 4.416 0 00-3.534 1.766l-6.226 8.39a4.416 4.416 0 00.75 6.095l8.082 6.536a77.02 77.02 0 00-26.056 10.423 77.064 77.064 0 10.486 130.545A77.153 77.153 0 10174.586 22.79zM146.85 8.835h24.422l2.341 3.18-14.618 11.88-14.662-11.88zM77.206 166.85A68.232 68.232 0 11110.02 38.777a77.153 77.153 0 00.31 119.24 67.304 67.304 0 01-33.123 8.833zm68.188-68.188a68.055 68.055 0 01-27.116 54.41 68.364 68.364 0 01-.398-109.128 68.055 68.055 0 0127.514 54.718zm13.779 68.188a67.349 67.349 0 01-33.167-8.833 76.932 76.932 0 00-.353-119.24 68.144 68.144 0 0126.498-8.39h.75l3.49 2.782a4.416 4.416 0 002.782.971 4.416 4.416 0 002.782-.971l3.445-2.783h.75a68.408 68.408 0 01-6.977 136.42z" />
    </symbol>
</svg>